<?xml version="1.0" encoding="utf-8"?>
<!-- Generator: Adobe Illustrator 24.1.1, SVG Export Plug-In . SVG Version: 6.00 Build 0)  -->
<svg version="1.1" id="Layer_1" xmlns="http://www.w3.org/2000/svg" xmlns:xlink="http://www.w3.org/1999/xlink" x="0px" y="0px"
	 viewBox="0 0 512 512" style="enable-background:new 0 0 512 512;" xml:space="preserve">
<style type="text/css">
	.st0{fill:#5586A4;}
</style>
<g>
	<path class="st0" d="M84,211.2c0.2-0.1,0.4-0.2,0.6-0.3c5.7-2.7,12.3-4,19.9-4c7.6,0,14.2,1.3,19.9,4c5.7,2.7,10.5,6.3,14.3,10.8
		s6.7,9.7,8.6,15.5s2.9,11.9,2.9,18.3s-1,12.4-2.9,18.3c-1.9,5.9-4.8,11-8.6,15.5c-3.8,4.5-8.6,8.1-14.3,10.7
		c-5.7,2.6-12.3,4-19.9,4c-7.6,0-14.2-1.3-19.9-4c-1.2-0.6-2.3-1.1-3.5-1.8c29.7,26.9,86.9,45.1,152.5,45.1
		c53.4,0,101.3-10.8,133.2-29.8c-35,31.8-97.3,54.2-168.6,54.2C88.8,367.8,0,317.7,0,256c0-61.8,88.8-111.8,198.3-111.8
		c71.5,0,134,22.5,168.9,54.5c-32-19.1-80-30.1-133.6-30.1C170,168.6,114.4,185.7,84,211.2z M73.3,269.4c1.2,4.6,3.2,8.7,5.9,12.3
		c2.7,3.6,6.1,6.6,10.3,8.8c4.2,2.2,9.2,3.3,15,3.3c5.8,0,10.8-1.1,15-3.3c4.2-2.2,7.6-5.1,10.3-8.8c2.7-3.6,4.6-7.7,5.9-12.3
		c1.2-4.6,1.9-9.2,1.9-13.9s-0.6-9.3-1.9-13.9s-3.2-8.7-5.9-12.3c-2.7-3.6-6.1-6.6-10.3-8.8c-4.2-2.2-9.2-3.3-15-3.3
		c-5.8,0-10.8,1.1-15,3.3c-4.2,2.2-7.6,5.1-10.3,8.8c-2.7,3.6-4.6,7.7-5.9,12.3c-1.2,4.6-1.9,9.2-1.9,13.9S72.1,264.9,73.3,269.4z
		 M169,242.8v8h0.2c1.6-3.3,4.2-5.7,7.7-7.2c3.5-1.5,7.4-2.2,11.6-2.2c4.7,0,8.8,0.8,12.2,2.5c3.5,1.7,6.4,3.9,8.7,6.8
		c2.3,2.9,4,6.2,5.2,9.9c1.2,3.7,1.8,7.7,1.8,11.9c0,4.2-0.6,8.2-1.7,11.9c-1.1,3.7-2.8,7-5.2,9.8s-5.2,5-8.7,6.6
		c-3.5,1.6-7.5,2.4-12.1,2.4c-1.5,0-3.1-0.2-5-0.5c-1.8-0.3-3.6-0.8-5.4-1.5c-1.8-0.7-3.5-1.6-5.1-2.8c-1.6-1.2-2.9-2.7-4-4.4H169
		v30.6h-10v-81.8H169z M204.6,263.9c-0.7-2.6-1.9-5-3.4-7c-1.5-2.1-3.5-3.7-5.8-4.9c-2.4-1.2-5.2-1.8-8.4-1.8
		c-3.4,0-6.2,0.7-8.5,1.9c-2.3,1.3-4.2,3-5.7,5.1c-1.5,2.1-2.6,4.5-3.2,7.2c-0.7,2.7-1,5.4-1,8.1c0,2.9,0.3,5.7,1.1,8.4
		c0.7,2.7,1.8,5.1,3.3,7.2c1.5,2.1,3.5,3.7,5.9,5c2.4,1.3,5.3,1.9,8.8,1.9c3.4,0,6.3-0.6,8.6-1.9s4.1-3,5.6-5.2
		c1.4-2.1,2.4-4.6,3-7.3c0.6-2.7,0.9-5.6,0.9-8.5C205.7,269.2,205.4,266.5,204.6,263.9z M267.6,298.2c-4.5,3.4-10.2,5-17.1,5
		c-4.9,0-9.1-0.8-12.6-2.3c-3.6-1.5-6.6-3.7-9-6.4c-2.4-2.7-4.2-6-5.5-9.8c-1.2-3.8-1.9-8-2.1-12.5c0-4.5,0.7-8.6,2.1-12.4
		c1.4-3.7,3.4-7,5.9-9.7c2.5-2.7,5.6-4.9,9-6.4c3.5-1.5,7.3-2.3,11.5-2.3c5.4,0,9.9,1.1,13.4,3.3c3.6,2.2,6.4,5,8.6,8.3
		c2.2,3.4,3.6,7,4.5,11c0.8,4,1.2,7.8,1,11.4H232c-0.1,2.6,0.2,5,0.9,7.4c0.7,2.3,1.8,4.4,3.4,6.2c1.6,1.8,3.6,3.2,6,4.3
		c2.4,1.1,5.3,1.6,8.5,1.6c4.2,0,7.7-1,10.4-2.9c2.7-1.9,4.5-4.8,5.3-8.7h9.9C275.1,289.9,272.1,294.9,267.6,298.2z M265.2,260.2
		c-0.9-2.1-2.1-3.8-3.6-5.3c-1.5-1.5-3.3-2.7-5.4-3.5c-2.1-0.9-4.3-1.3-6.8-1.3c-2.6,0-4.9,0.4-7,1.3c-2.1,0.9-3.8,2.1-5.3,3.6
		c-1.5,1.5-2.7,3.3-3.5,5.3c-0.9,2-1.4,4.2-1.5,6.5h34.7C266.6,264.5,266.1,262.3,265.2,260.2z M293.5,242.8v9.4h0.2
		c4.2-7.2,10.8-10.8,19.8-10.8c4,0,7.3,0.5,10,1.6c2.7,1.1,4.8,2.6,6.5,4.5c1.7,1.9,2.8,4.2,3.5,6.8c0.7,2.6,1,5.6,1,8.8v39h-10V262
		c0-3.7-1.1-6.6-3.3-8.7c-2.2-2.1-5.2-3.2-9-3.2c-3.1,0-5.7,0.5-7.9,1.4c-2.2,0.9-4.1,2.2-5.6,3.9c-1.5,1.7-2.6,3.6-3.3,5.9
		c-0.7,2.3-1.1,4.7-1.1,7.4v33.4h-10v-59.3H293.5z M403.8,301.4c-4.5,1.9-9.1,2.8-13.7,2.8c-7.3,0-13.8-1.2-19.7-3.7
		c-5.8-2.5-10.7-5.9-14.7-10.2c-4-4.3-7.1-9.5-9.2-15.3c-2.1-5.9-3.2-12.2-3.2-19c0-7,1.1-13.4,3.2-19.4c2.1-6,5.2-11.2,9.2-15.6
		c4-4.4,8.9-7.9,14.7-10.4c5.8-2.5,12.4-3.8,19.7-3.8c4.9,0,9.6,0.7,14.2,2.2c4.6,1.4,8.7,3.6,12.4,6.3c3.7,2.8,6.7,6.2,9.1,10.3
		c2.4,4.1,3.9,8.8,4.4,14.1h-20c-1.2-5.2-3.6-9.1-7.2-11.7c-3.6-2.6-7.9-3.9-12.9-3.9c-4.7,0-8.7,0.9-12,2.7c-3.3,1.8-6,4.2-8,7.2
		c-2,3-3.5,6.4-4.5,10.2c-0.9,3.8-1.4,7.8-1.4,11.9c0,3.9,0.5,7.7,1.4,11.4c0.9,3.7,2.4,7,4.5,10c2,3,4.7,5.3,8,7.1
		c3.3,1.8,7.3,2.7,12,2.7c6.9,0,12.3-1.7,16.1-5.1c3.8-3.4,6-8.4,6.6-14.9h-21.1v-15.3h39.9v50.3h-13.3l-2.1-10.6
		C412.5,296.3,408.4,299.6,403.8,301.4z M465.6,209.1v75.7H512v17.3h-67.3v-93H465.6z"/>
</g>
</svg>
